<svg xmlns="http://www.w3.org/2000/svg" width="64" height="64" viewBox="0 0 64 64">
	<defs>
		<linearGradient id="g" x1="0" y1="0" x2="1" y2="1">
			<stop offset="0" stop-color="#0d6efd"/>
			<stop offset="1" stop-color="#6ea8fe"/>
		</linearGradient>
	</defs>
	<rect x="4" y="4" width="56" height="56" rx="14" fill="url(#g)"/>
	<g fill="#fff">
		<path d="M20 23h14a9 9 0 1 1 0 18H20v-4h14a5 5 0 0 0 0-10H20v-4z"/>
		<rect x="16" y="19" width="4" height="26" rx="2"/>
	</g>
</svg>

<svg xmlns="http://www.w3.org/2000/svg" width="64" height="64" viewBox="0 0 64 64">
	<defs>
		<linearGradient id="g" x1="0" y1="0" x2="1" y2="1">
			<stop offset="0" stop-color="#0d6efd"/>
			<stop offset="1" stop-color="#6ea8fe"/>
		</linearGradient>
	</defs>
	<rect x="4" y="4" width="56" height="56" rx="14" fill="url(#g)"/>
	<g fill="#fff">
		<path d="M20 23h14a9 9 0 1 1 0 18H20v-4h14a5 5 0 0 0 0-10H20v-4z"/>
		<rect x="16" y="19" width="4" height="26" rx="2"/>
	</g>
</svg>


