<svg xmlns="http://www.w3.org/2000/svg" width="1200" height="630" viewBox="0 0 1200 630">
	<defs>
		<linearGradient id="g1" x1="0" y1="0" x2="1" y2="1">
			<stop offset="0" stop-color="#0d6efd"/>
			<stop offset="1" stop-color="#6ea8fe"/>
		</linearGradient>
	</defs>
	<rect width="1200" height="630" fill="#f8f9fa"/>
	<circle cx="150" cy="100" r="220" fill="rgba(13,110,253,0.06)"/>
	<circle cx="1100" cy="0" r="280" fill="rgba(13,110,253,0.06)"/>
	<rect x="60" y="140" width="1080" height="350" rx="24" fill="#fff" stroke="#e9ecef"/>
	<rect x="90" y="210" width="500" height="16" rx="8" fill="#adb5bd"/>
	<rect x="90" y="250" width="420" height="12" rx="6" fill="#ced4da"/>
	<rect x="90" y="290" width="340" height="12" rx="6" fill="#ced4da"/>
	<rect x="90" y="330" width="380" height="12" rx="6" fill="#ced4da"/>
	<rect x="780" y="200" width="320" height="180" rx="16" fill="url(#g1)"/>
	<g transform="translate(100,80)">
		<rect width="64" height="64" rx="16" fill="url(#g1)"/>
		<g fill="#fff">
			<path d="M18 20h22a14 14 0 1 1 0 28H18v-6h22a8 8 0 0 0 0-16H18v-6z"/>
			<rect x="12" y="14" width="6" height="36" rx="3"/>
		</g>
	</g>
	<text x="190" y="120" font-family="Plus Jakarta Sans, system-ui, -apple-system, Segoe UI, Roboto, Helvetica, Arial" font-weight="700" font-size="48" fill="#0d6efd">Navi+</text>
	<text x="90" y="420" font-family="Plus Jakarta Sans, system-ui, -apple-system, Segoe UI, Roboto, Helvetica, Arial" font-weight="600" font-size="28" fill="#212529">Modern commerce growth platform</text>
	<text x="90" y="460" font-family="Plus Jakarta Sans, system-ui, -apple-system, Segoe UI, Roboto, Helvetica, Arial" font-weight="400" font-size="20" fill="#495057">Unify operations, orders, inventory, fulfillment, payments, and realtime analytics.</text>
</svg>
